HIERARCHY
ROOT Hips
{
  OFFSET 52.9209 94.1461 12.313
  CHANNELS 6 Xposition Yposition Zposition Zrotation Xrotation Yrotation
  JOINT spine
  {
    OFFSET 0 7.4756 0.429885
    CHANNELS 3 Zrotation Xrotation Yrotation
    JOINT spine1
    {
      OFFSET 0 9.92301 0
      CHANNELS 3 Zrotation Xrotation Yrotation
      JOINT spine2
      {
        OFFSET 0 9.50804 0
        CHANNELS 3 Zrotation Xrotation Yrotation
        JOINT Neck
        {
          OFFSET 0 24.4111 1.16384
          CHANNELS 3 Zrotation Xrotation Yrotation
          JOINT Head
          {
            OFFSET 0 7.37523 0
            CHANNELS 3 Zrotation Xrotation Yrotation
            End Site
            {
              OFFSET 0 17.8522 -5.88741
            }
          }
        }
        JOINT RightShoulder
        {
          OFFSET -4.00356 10.2679 -0.557468
          CHANNELS 3 Zrotation Xrotation Yrotation
          JOINT RightArm
          {
            OFFSET 0 13.4673 0
            CHANNELS 3 Zrotation Xrotation Yrotation
            JOINT RightArmRoll
            {
              OFFSET 0 6.79858 0
              CHANNELS 3 Zrotation Xrotation Yrotation
              JOINT RightForeArm
              {
                OFFSET 0 19.8018 0
                CHANNELS 3 Zrotation Xrotation Yrotation
                JOINT RightForeArmRoll
                {
                  OFFSET 0 7.62905 0
                  CHANNELS 3 Zrotation Xrotation Yrotation
                  JOINT RightHand
                  {
                    OFFSET 0 15.3098 0
                    CHANNELS 3 Zrotation Xrotation Yrotation
                    End Site
                    {
                      OFFSET 0 0 0
                    }
                  }
                }
              }
            }
          }
        }
        JOINT LeftShoulder
        {
          OFFSET 4.00356 10.2679 -0.557468
          CHANNELS 3 Zrotation Xrotation Yrotation
          JOINT LeftArm
          {
            OFFSET 0 13.4673 0
            CHANNELS 3 Zrotation Xrotation Yrotation
            JOINT LeftArmRoll
            {
              OFFSET 0 6.79858 0
              CHANNELS 3 Zrotation Xrotation Yrotation
              JOINT LeftForeArm
              {
                OFFSET 0 19.8018 0
                CHANNELS 3 Zrotation Xrotation Yrotation
                JOINT LeftForeArmRoll
                {
                  OFFSET 0 7.62905 0
                  CHANNELS 3 Zrotation Xrotation Yrotation
                  JOINT LeftHand
                  {
                    OFFSET 0 15.3098 0
                    CHANNELS 3 Zrotation Xrotation Yrotation
                    End Site
                    {
                      OFFSET 0 0 0
                    }
                  }
                }
              }
            }
          }
        }
      }
    }
  }
  JOINT RightUpLeg
  {
    OFFSET -6.62609 -1.21505 -1.01927
    CHANNELS 3 Zrotation Xrotation Yrotation
    JOINT RightUpLegRoll
    {
      OFFSET 0 17.9517 0
      CHANNELS 3 Zrotation Xrotation Yrotation
      JOINT RightLeg
      {
        OFFSET 0 -22.2304 0
        CHANNELS 3 Zrotation Xrotation Yrotation
        JOINT RightLegRoll
        {
          OFFSET 0 22.3032 0
          CHANNELS 3 Zrotation Xrotation Yrotation
          JOINT RightFoot
          {
            OFFSET 0 18.5636 0
            CHANNELS 3 Zrotation Xrotation Yrotation
            JOINT RightToeBase
            {
              OFFSET 0 15.5183 0
              CHANNELS 3 Zrotation Xrotation Yrotation
              End Site
              {
                OFFSET 0.00657761 7.51539 -0.866262
              }
            }
          }
        }
      }
    }
  }
  JOINT LeftUpLeg
  {
    OFFSET 6.62609 -1.21505 -1.01927
    CHANNELS 3 Zrotation Xrotation Yrotation
    JOINT LeftUpLegRoll
    {
      OFFSET 0 17.9518 0
      CHANNELS 3 Zrotation Xrotation Yrotation
      JOINT LeftLeg
      {
        OFFSET 0 22.2303 0
        CHANNELS 3 Zrotation Xrotation Yrotation
        JOINT LeftLegRoll
        {
          OFFSET 0 22.5093 0
          CHANNELS 3 Zrotation Xrotation Yrotation
          JOINT LeftFoot
          {
            OFFSET 0 18.3575 0
            CHANNELS 3 Zrotation Xrotation Yrotation
            JOINT LeftToeBase
            {
              OFFSET 0 15.5183 0
              CHANNELS 3 Zrotation Xrotation Yrotation
              End Site
              {
                OFFSET -0.029478 7.51539 -0.866263
              }
            }
          }
        }
      }
    }
  }
}
MOTION
Frames: 6
Frame Time: 0.00208333
51.8619 93.937 12.0484 -1.21434 -3.10117 -5.65292 0.193499 -1.42006 -0.291602 0.382499 1.16104 -0.603401 0.389995 2.80605 -0.610116 -5.30503 4.71181 0.024965 6.12151 8.05764 -0.841967 53.1738 -6.10059 -3.48668 145.36 54.4525 -48.6382 1.59397e-005 1.0747e-006 -2.38012e-006 13.8683 55.0505 -9.50722 1.28259e-005 -2.42631e-007 -3.00095 8.02893 -4.95148 0.697696 -61.6218 -5.86342 3.78448 -86.6558 74.1094 8.36193 -5.48347e-007 1.68081e-006 1.67241e-006 -11.8706 73.2353 12.5501 -4.45667e-006 -2.24709e-006 3 -8.02923 -4.95146 -0.697684 178.925 2.56796 -0.981062 180 7.01539e-015 178.89 179.151 12.1768 179.502 -7.76093e-007 -3.05258e-006 0.275896 -20.455 70.041 21.3993 8.13649 25.2327 -3.48774 -175.111 -0.922996 0.435215 4.54188e-006 -4.6773e-006 -1.16208 -2.17233 -7.5252 0.108774 -1.83587e-006 7.66846e-007 -0.0166289 16.8406 65.3328 -17.5596 -8.12769 25.2331 3.48399 
51.8507 93.9302 12.0501 -1.23801 -3.10235 -5.64087 0.196291 -1.41743 -0.297813 0.388005 1.16637 -0.616122 0.395659 2.81138 -0.622937 -5.1801 4.67391 0.00545317 6.01859 8.07461 -0.83919 53.4931 -6.06435 -3.47896 144.352 53.9573 -47.9967 1.59397e-005 1.0747e-006 -2.38012e-006 13.8287 55.5308 -9.54258 1.28259e-005 -2.42631e-007 -3.00094 8.02893 -4.95148 0.697696 -61.415 -5.85529 3.76876 -86.8773 74.6476 8.28209 -5.48347e-007 1.68081e-006 1.67241e-006 -11.8761 72.4855 12.3872 -4.45667e-006 -2.24709e-006 3 -8.02923 -4.95146 -0.697684 178.952 2.54706 -0.998875 180 7.01539e-015 178.89 179.158 12.1525 179.501 -7.76093e-007 -3.05258e-006 0.275027 -20.4428 70.0282 21.3865 8.13649 25.2327 -3.48774 -175.09 -0.926353 0.427238 4.54188e-006 -4.6773e-006 -1.16238 -2.16657 -7.52362 0.109378 -1.83587e-006 7.66846e-007 -0.0166921 16.8404 65.3327 -17.5593 -8.12769 25.2331 3.48399 
51.8683 93.932 12.0474 -1.26177 -3.10369 -5.62741 0.199026 -1.41462 -0.303976 0.393398 1.17209 -0.628744 0.401207 2.8171 -0.635657 -5.0532 4.63404 -0.0151706 5.91342 8.09156 -0.837247 53.8113 -6.02998 -3.47246 143.363 53.4558 -47.3669 1.59397e-005 1.0747e-006 -2.38012e-006 13.7824 56.0081 -9.57452 1.28259e-005 -2.42631e-007 -3.00093 8.02893 -4.95148 0.697696 -61.2054 -5.84656 3.75243 -87.1154 75.1847 8.21742 -5.48347e-007 1.68081e-006 1.67241e-006 -11.8667 71.7301 12.2146 -4.45667e-006 -2.24709e-006 3 -8.02923 -4.95146 -0.697684 178.98 2.52553 -1.01689 180 7.01539e-015 178.89 179.165 12.1277 179.501 -7.76093e-007 -3.05258e-006 0.274153 -20.4306 70.0155 21.3738 8.13649 25.2327 -3.48774 -175.069 -0.929035 0.41911 4.54188e-006 -4.6773e-006 -1.16267 -2.16081 -7.52311 0.110001 -1.83587e-006 7.66846e-007 -0.0167563 16.8405 65.3332 -17.5594 -8.12769 25.2331 3.48399 
51.8674 93.9411 12.054 -1.28571 -3.10538 -5.61247 0.201706 -1.41157 -0.310061 0.398684 1.17828 -0.641203 0.406647 2.82328 -0.648213 -4.9238 4.59244 -0.036987 5.80525 8.10802 -0.836146 54.1281 -5.99815 -3.46761 142.392 52.9482 -46.748 1.59397e-005 1.0747e-006 -2.38012e-006 13.7303 56.4829 -9.60362 1.28259e-005 -2.42631e-007 -3.00093 8.02893 -4.95148 0.697696 -60.9925 -5.8371 3.73534 -87.3737 75.7203 8.17192 -5.48347e-007 1.68081e-006 1.67241e-006 -11.8422 70.9696 12.033 -4.45667e-006 -2.24709e-006 3 -8.02923 -4.95146 -0.697684 179.008 2.50312 -1.03478 180 7.01539e-015 178.89 179.172 12.1022 179.5 -7.76093e-007 -3.05258e-006 0.273252 -20.4185 70.0027 21.361 8.13649 25.2327 -3.48774 -175.047 -0.931104 0.410749 4.54188e-006 -4.6773e-006 -1.16294 -2.15508 -7.52391 0.110643 -1.83587e-006 7.66846e-007 -0.0168216 16.841 65.3343 -17.56 -8.12769 25.2331 3.48399 
51.8926 93.9395 12.0626 -1.3099 -3.1076 -5.59594 0.204333 -1.40824 -0.316034 0.403869 1.18501 -0.653436 0.411983 2.83001 -0.66054 -4.79137 4.54936 -0.0600766 5.69332 8.12352 -0.835893 54.4432 -5.96951 -3.46484 141.441 52.4351 -46.139 1.59397e-005 1.0747e-006 -2.38012e-006 13.6734 56.9554 -9.63052 1.28259e-005 -2.42631e-007 -3.00092 8.02893 -4.95148 0.697696 -60.776 -5.82672 3.71738 -87.6563 76.254 8.15016 -5.48347e-007 1.68081e-006 1.67241e-006 -11.8026 70.2047 11.843 -4.45667e-006 -2.24709e-006 3 -8.02923 -4.95146 -0.697684 179.036 2.47957 -1.05222 180 7.01539e-015 178.89 179.178 12.076 179.5 -7.76093e-007 -3.05258e-006 0.272305 -20.4063 69.9898 21.3482 8.13649 25.2327 -3.48774 -175.025 -0.932622 0.402075 4.54188e-006 -4.6773e-006 -1.16321 -2.14939 -7.52628 0.111305 -1.83587e-006 7.66846e-007 -0.0168884 16.8419 65.3361 -17.561 -8.12769 25.2331 3.48399 
51.9005 93.9489 12.0674 -1.33441 -3.11055 -5.57776 0.206911 -1.4046 -0.321865 0.408959 1.19236 -0.66538 0.417221 2.83736 -0.672576 -4.65537 4.50503 -0.0845202 5.57689 8.13761 -0.836493 54.7564 -5.94474 -3.46459 140.51 51.9167 -45.5392 1.59397e-005 1.0747e-006 -2.38012e-006 13.6128 57.4259 -9.65583 1.28259e-005 -2.42631e-007 -3.00091 8.02893 -4.95148 0.697696 -60.5557 -5.81528 3.69843 -87.968 76.7855 8.15746 -5.48347e-007 1.68081e-006 1.67241e-006 -11.7475 69.4358 11.6448 -4.45667e-006 -2.24709e-006 3 -8.02923 -4.95146 -0.697684 179.064 2.45465 -1.06885 180 7.01539e-015 178.89 179.183 12.049 179.5 -7.76093e-007 -3.05258e-006 0.271291 -20.3939 69.9767 21.3352 8.13649 25.2327 -3.48774 -175.002 -0.933651 0.393006 4.54188e-006 -4.6773e-006 -1.16348 -2.14379 -7.53044 0.111984 -1.83587e-006 7.66846e-007 -0.0169567 16.8434 65.3387 -17.5626 -8.12769 25.2331 3.48399 
